<?xml version="1.0" encoding="utf-8"?>
<!-- Generator: Adobe Illustrator 16.0.4, SVG Export Plug-In . SVG Version: 6.00 Build 0)  -->
<!DOCTYPE svg PUBLIC "-//W3C//DTD SVG 1.1//EN" "http://www.w3.org/Graphics/SVG/1.1/DTD/svg11.dtd">
<svg version="1.1" id="Layer_1" xmlns="http://www.w3.org/2000/svg" xmlns:xlink="http://www.w3.org/1999/xlink" x="0px" y="0px"
	 width="1538.5px" height="1870.5px" viewBox="0 0 1538.5 1870.5" enable-background="new 0 0 1538.5 1870.5" xml:space="preserve">
<g id="Background_Banner">
	<polyline fill="#EEEEEE" stroke="#000000" stroke-width="1.3873" stroke-linecap="round" stroke-linejoin="round" points="
		1423.865,1234.527 1539.141,1095.789 1245.482,1095.789 1245.482,1378.489 1539.141,1378.489 1423.865,1234.527 	"/>
	<polygon fill="#231F20" stroke="#000000" stroke-width="1.3873" stroke-linecap="round" stroke-linejoin="round" points="
		1245.482,1375.082 1245.482,1101.426 1394.8,1026.181 1394.8,1299.828 	"/>
	<polyline fill="#EEEEEE" stroke="#000000" stroke-width="1.3873" stroke-linecap="round" stroke-linejoin="round" points="
		118.393,1237.14 6.996,1095.789 300.655,1095.789 300.655,1378.489 6.996,1378.489 118.393,1237.14 	"/>
	<polygon fill="#231F20" stroke="#000000" stroke-width="1.3873" stroke-linecap="round" stroke-linejoin="round" points="
		300.655,1375.082 300.655,1097.821 151.336,1021.586 151.336,1298.837 	"/>
</g>
<g id="Shield">
	<title>Layer 1</title>
	<path id="outerShield" fill="#1D7FC4" stroke="#000000" stroke-width="2" d="M769.713,117.454h6.02l25.93,13.038
		c17.287,8.692,28.708,14.386,34.265,17.084c5.557,2.697,24.464,11.464,56.723,26.301c32.258,14.836,48.928,22.329,50.008,22.479
		c1.08,0.149,9.646,3.671,25.698,10.565s28.399,11.989,37.043,15.286c8.643,3.297,21.145,7.792,37.506,13.487
		c16.36,5.695,26.702,9.292,31.023,10.791c4.322,1.499,9.725,3.297,16.207,5.395s14.817,4.646,25.004,7.643
		c10.188,2.997,23.152,6.594,38.896,10.79s31.023,7.942,45.841,11.24c14.817,3.297,24.387,5.395,28.708,6.294
		c4.322,0.899,18.059,3.447,41.211,7.643s37.66,6.744,43.525,7.643c5.865,0.899,20.22,3.147,43.062,6.744s34.419,5.395,34.728,5.395
		c0.31,0,11.422,2.098,33.339,6.294s32.953,6.369,33.107,6.519l0.231,0.225l-1.39,66.988c-0.926,44.659-3.241,102.356-6.945,173.09
		s-6.637,120.189-8.797,148.363c-2.161,28.174-4.631,52.302-7.409,72.383s-6.02,39.114-9.724,57.097
		c-3.704,17.983-7.718,36.117-12.039,54.399c-4.321,18.283-8.181,34.319-11.576,48.106s-7.408,28.623-12.039,44.509
		c-4.63,15.886-7.408,25.477-8.334,28.773c-0.927,3.297-2.315,7.493-4.168,12.588c-1.852,5.096-4.013,11.39-6.482,18.883
		s-6.328,18.283-11.576,32.37c-5.247,14.088-9.569,25.327-12.965,33.72s-7.562,18.433-12.502,30.122s-11.268,25.776-18.984,42.262
		c-7.718,16.484-12.348,26.075-13.891,28.773c-1.544,2.697-7.178,12.513-16.901,29.447s-15.589,26.976-17.596,30.122
		c-2.007,3.147-6.791,11.09-14.354,23.828c-7.562,12.738-12.502,20.831-14.816,24.278c-2.315,3.446-5.865,8.842-10.65,16.185
		c-4.784,7.343-8.644,13.038-11.576,17.084c-2.932,4.047-6.328,8.842-10.187,14.387s-7.562,10.641-11.112,15.286
		c-3.551,4.646-6.329,8.542-8.335,11.689c-2.007,3.146-4.939,7.193-8.798,12.139s-7.563,9.891-11.113,14.836
		c-3.55,4.946-7.408,10.041-11.575,15.286c-4.168,5.245-7.718,9.741-10.65,13.487c-2.933,3.747-9.184,10.865-18.753,21.355
		s-20.837,22.479-33.803,35.967c-12.965,13.488-24.387,25.027-34.265,34.618c-9.879,9.592-16.438,15.661-19.68,18.208
		c-3.241,2.548-10.804,8.992-22.688,19.333c-11.885,10.34-19.139,16.635-21.763,18.882c-2.624,2.248-9.106,7.793-19.447,16.635
		s-17.132,14.537-20.374,17.084c-3.24,2.548-6.945,5.546-11.112,8.992c-4.167,3.447-9.955,8.168-17.364,14.162
		c-7.408,5.994-13.042,10.415-16.9,13.263c-3.859,2.848-7.563,5.396-11.113,7.643c-3.55,2.248-10.032,6.145-19.447,11.689
		s-15.589,9.292-18.521,11.24s-6.251,3.971-9.955,6.069c-3.705,2.098-7.563,4.496-11.576,7.193
		c-4.014,2.697-6.945,4.646-8.798,5.845c-1.853,1.198-5.865,3.297-12.039,6.294s-13.582,6.444-22.226,10.34
		c-8.644,3.896-14.663,6.444-18.059,7.644l-5.094,1.798l-5.557-1.349c-3.704-0.899-7.717-2.397-12.038-4.495
		c-4.322-2.099-11.576-5.695-21.764-10.791c-10.187-5.095-16.052-8.242-17.595-9.44c-1.544-1.199-5.479-3.821-11.808-7.868
		c-6.328-4.046-11.113-7.043-14.354-8.992c-3.241-1.947-9.569-5.694-18.984-11.239s-15.897-9.441-19.447-11.689
		c-3.55-2.247-7.255-4.795-11.113-7.643s-8.258-6.22-13.196-10.115c-4.939-3.896-11.499-9.217-19.679-15.961
		c-8.181-6.743-15.28-12.588-21.3-17.534c-6.02-4.945-14.817-12.438-26.394-22.479c-11.575-10.041-18.984-16.335-22.226-18.883
		s-10.341-8.542-21.3-17.983c-10.958-9.441-17.055-14.762-18.289-15.96c-1.235-1.199-6.715-6.52-16.438-15.961
		s-16.515-16.185-20.374-20.231c-3.858-4.046-12.348-13.038-25.467-26.975c-13.119-13.938-20.991-22.479-23.615-25.627
		c-2.624-3.146-6.482-7.792-11.576-13.937c-5.093-6.145-9.106-11.09-12.039-14.837c-2.932-3.746-5.864-7.643-8.797-11.688
		c-2.933-4.047-6.02-8.243-9.261-12.589s-6.174-8.242-8.798-11.689c-2.624-3.446-4.862-6.519-6.714-9.216
		c-1.853-2.698-4.399-6.22-7.641-10.565c-3.241-4.347-6.02-8.243-8.335-11.689c-2.314-3.446-5.401-7.942-9.261-13.487
		c-3.858-5.545-6.791-9.891-8.798-13.038c-2.006-3.147-5.247-8.093-9.724-14.837c-4.476-6.743-7.408-11.389-8.798-13.937
		c-1.389-2.548-5.247-8.992-11.576-19.332c-6.328-10.341-10.495-17.085-12.502-20.231c-2.006-3.147-7.022-11.765-15.048-25.852
		c-8.026-14.087-14.046-24.727-18.059-31.92c-4.013-7.194-7.563-13.938-10.65-20.232c-3.087-6.294-7.409-15.735-12.965-28.323
		c-5.556-12.589-8.334-19.032-8.334-19.332s-2.778-7.194-8.334-20.682c-5.557-13.487-9.878-24.128-12.965-31.921
		s-7.409-19.632-12.965-35.518c-5.557-15.885-11.113-32.819-16.669-50.803c-5.557-17.983-11.73-39.863-18.521-65.64
		c-6.792-25.776-11.576-44.958-14.354-57.547c-2.778-12.589-6.637-30.871-11.576-54.849s-7.872-39.713-8.798-47.206
		c-0.926-7.493-2.933-30.422-6.02-68.787c-3.087-38.364-5.093-67.288-6.02-86.77c-0.926-19.482-2.006-40.163-3.241-62.043
		s-2.933-57.696-5.093-107.45c-2.161-49.754-3.241-84.972-3.241-105.653v-31.021l3.01-1.574c2.006-1.049,7.486-2.323,16.438-3.821
		c8.952-1.499,21.3-3.447,37.043-5.845c15.743-2.398,39.667-6.294,71.771-11.689s55.102-9.292,68.993-11.689
		c13.892-2.398,32.259-6.145,55.102-11.24c22.843-5.096,42.6-9.891,59.269-14.387c16.67-4.496,31.023-8.692,43.062-12.589
		s21.454-6.894,28.246-8.992c6.791-2.098,13.273-4.196,19.447-6.294c6.174-2.098,18.521-6.594,37.043-13.487
		s35.886-13.862,52.092-20.906s24.85-10.64,25.93-10.79s8.875-3.522,23.384-10.116c14.508-6.594,27.628-12.588,39.357-17.983
		c11.73-5.395,23.307-10.79,34.729-16.185c11.421-5.395,25.621-12.438,42.599-21.13l25.468-13.038H769.713L769.713,117.454z"/>
	<path id="outlineShield" fill="#58595B" d="M769.691,153.602h5.754l24.785,12.462c16.523,8.309,27.441,13.751,32.752,16.329
		c5.312,2.578,23.385,10.958,54.221,25.139c30.834,14.181,46.768,21.343,47.801,21.485c1.031,0.144,9.221,3.51,24.564,10.099
		s27.146,11.459,35.408,14.61s20.213,7.448,35.852,12.891c15.639,5.443,25.523,8.881,29.654,10.313s9.295,3.151,15.492,5.156
		c6.195,2.006,14.164,4.44,23.9,7.306c9.736,2.864,22.131,6.303,37.18,10.312c15.049,4.011,29.654,7.592,43.816,10.743
		c14.164,3.151,23.311,5.156,27.443,6.016c4.131,0.86,17.26,3.295,39.391,7.306s35.998,6.445,41.605,7.305
		c5.605,0.859,19.326,3.009,41.162,6.446s32.9,5.156,33.195,5.156s10.918,2.005,31.867,6.017c20.949,4.011,31.498,6.087,31.646,6.23
		l0.221,0.215l-1.328,64.027c-0.885,42.686-3.098,97.832-6.639,165.439c-3.541,67.608-6.344,114.877-8.408,141.806
		c-2.066,26.929-4.428,49.99-7.082,69.184c-2.656,19.194-5.754,37.386-9.295,54.574c-3.541,17.188-7.377,34.521-11.508,51.994
		c-4.131,17.475-7.82,32.801-11.066,45.98c-3.244,13.178-7.08,27.357-11.508,42.54c-4.426,15.185-7.08,24.351-7.965,27.502
		c-0.887,3.152-2.215,7.161-3.984,12.031c-1.77,4.871-3.836,10.887-6.197,18.049c-2.359,7.161-6.049,17.474-11.064,30.938
		c-5.018,13.466-9.146,24.208-12.393,32.229s-7.229,17.619-11.951,28.79c-4.721,11.173-10.77,24.638-18.146,40.393
		c-7.377,15.757-11.803,24.923-13.277,27.502c-1.477,2.579-6.861,11.962-16.156,28.146c-9.295,16.187-14.9,25.782-16.818,28.792
		c-1.918,3.007-6.492,10.598-13.721,22.773c-7.229,12.175-11.951,19.911-14.162,23.205c-2.215,3.295-5.607,8.451-10.182,15.468
		c-4.574,7.021-8.262,12.465-11.064,16.33c-2.805,3.868-6.049,8.45-9.736,13.752c-3.689,5.299-7.23,10.17-10.625,14.609
		c-3.393,4.441-6.049,8.164-7.965,11.173c-1.918,3.008-4.721,6.876-8.41,11.601c-3.689,4.729-7.23,9.456-10.623,14.183
		c-3.395,4.727-7.082,9.596-11.064,14.609c-3.982,5.015-7.377,9.311-10.18,12.893c-2.803,3.58-8.779,10.385-17.926,20.41
		c-9.148,10.028-19.918,21.486-32.311,34.377c-12.393,12.892-23.312,23.922-32.754,33.088c-9.443,9.169-15.711,14.969-18.811,17.403
		c-3.098,2.437-10.328,8.596-21.688,18.479c-11.361,9.884-18.295,15.9-20.803,18.048c-2.508,2.149-8.705,7.448-18.59,15.899
		c-9.885,8.45-16.375,13.895-19.475,16.329c-3.098,2.435-6.639,5.299-10.623,8.594c-3.982,3.294-9.516,7.807-16.598,13.536
		c-7.08,5.73-12.467,9.956-16.154,12.677c-3.689,2.722-7.229,5.156-10.623,7.306c-3.393,2.147-9.59,5.871-18.588,11.173
		c-9,5.299-14.9,8.881-17.705,10.743c-2.803,1.859-5.975,3.793-9.516,5.8c-3.541,2.005-7.229,4.297-11.064,6.874
		c-3.838,2.58-6.639,4.441-8.41,5.589c-1.771,1.145-5.605,3.149-11.508,6.015c-5.9,2.866-12.982,6.16-21.246,9.883
		c-8.262,3.727-14.014,6.159-17.26,7.306l-4.869,1.72l-5.312-1.29c-3.54-0.859-7.376-2.292-11.507-4.296
		c-4.131-2.005-11.066-5.444-20.802-10.313c-9.738-4.871-15.344-7.879-16.819-9.023c-1.476-1.147-5.238-3.655-11.287-7.522
		c-6.049-3.866-10.622-6.731-13.721-8.593c-3.098-1.862-9.147-5.444-18.147-10.743c-9-5.3-15.196-9.023-18.589-11.173
		c-3.394-2.147-6.935-4.582-10.624-7.304c-3.687-2.723-7.892-5.945-12.613-9.67c-4.722-3.724-10.993-8.81-18.812-15.254
		c-7.819-6.445-14.606-12.032-20.36-16.759s-14.163-11.89-25.227-21.486c-11.066-9.598-18.147-15.612-21.245-18.049
		c-3.099-2.435-9.884-8.163-20.36-17.187c-10.475-9.024-16.303-14.109-17.483-15.256c-1.18-1.146-6.417-6.23-15.711-15.254
		c-9.295-9.025-15.787-15.472-19.475-19.337c-3.689-3.869-11.803-12.462-24.343-25.782c-12.541-13.322-20.065-21.486-22.573-24.495
		c-2.507-3.008-6.196-7.447-11.065-13.32c-4.869-5.874-8.705-10.601-11.508-14.181c-2.803-3.581-5.606-7.306-8.409-11.173
		c-2.803-3.868-5.754-7.878-8.852-12.032c-3.099-4.154-5.902-7.879-8.41-11.173c-2.508-3.295-4.648-6.23-6.418-8.808
		c-1.77-2.579-4.204-5.947-7.303-10.1c-3.099-4.153-5.754-7.878-7.967-11.173c-2.213-3.294-5.164-7.591-8.852-12.89
		c-3.688-5.302-6.492-9.456-8.409-12.463c-1.918-3.009-5.016-7.735-9.295-14.18c-4.278-6.446-7.082-10.886-8.41-13.322
		c-1.328-2.435-5.016-8.594-11.065-18.477c-6.049-9.884-10.033-16.33-11.95-19.339c-1.918-3.007-6.713-11.242-14.384-24.707
		c-7.672-13.465-13.426-23.636-17.262-30.51c-3.836-6.876-7.229-13.322-10.179-19.338c-2.951-6.015-7.083-15.04-12.394-27.073
		c-5.311-12.03-7.966-18.189-7.966-18.477c0-0.285-2.657-6.874-7.967-19.767c-5.312-12.893-9.442-23.061-12.393-30.509
		c-2.951-7.449-7.082-18.765-12.393-33.949c-5.311-15.182-10.623-31.367-15.933-48.556c-5.312-17.189-11.214-38.103-17.705-62.738
		c-6.493-24.637-11.066-42.971-13.721-55.003c-2.656-12.032-6.344-29.506-11.065-52.425c-4.722-22.917-7.525-37.957-8.409-45.119
		c-0.886-7.162-2.803-29.078-5.754-65.747s-4.87-64.313-5.754-82.934c-0.886-18.622-1.917-38.388-3.098-59.302
		c-1.181-20.912-2.803-55.146-4.87-102.701c-2.065-47.555-3.097-81.215-3.097-100.982v-29.65l2.876-1.504
		c1.917-1.003,7.155-2.22,15.712-3.652c8.557-1.433,20.36-3.295,35.408-5.586c15.049-2.292,37.917-6.017,68.604-11.173
		c30.687-5.157,52.669-8.881,65.947-11.173c13.279-2.292,30.835-5.873,52.67-10.743c21.835-4.87,40.72-9.453,56.653-13.751
		c15.935-4.297,29.655-8.307,41.162-12.031c11.508-3.725,20.508-6.59,26.999-8.595c6.492-2.005,12.688-4.011,18.59-6.016
		c5.901-2.006,17.705-6.303,35.409-12.892c17.703-6.589,34.301-13.249,49.792-19.981c15.491-6.732,23.752-10.17,24.785-10.313
		c1.032-0.144,8.483-3.366,22.351-9.668c13.869-6.303,26.41-12.032,37.623-17.189c11.212-5.155,22.278-10.312,33.195-15.469
		c10.917-5.157,24.491-11.889,40.72-20.197l24.343-12.462H769.691z"/>
	<path id="innerShield" fill="#13CD78" d="M769.667,185.822h5.436l23.412,11.948c15.609,7.964,25.922,13.184,30.939,15.655
		c5.017,2.473,22.089,10.506,51.214,24.103c29.129,13.596,44.179,20.462,45.155,20.6c0.976,0.137,8.71,3.365,23.204,9.682
		c14.493,6.317,25.644,10.986,33.448,14.008c7.804,3.021,19.091,7.141,33.864,12.359c14.771,5.22,24.11,8.515,28.012,9.889
		c3.902,1.373,8.781,3.021,14.635,4.944c5.853,1.923,13.379,4.258,22.575,7.004c9.199,2.747,20.905,6.042,35.122,9.888
		c14.214,3.846,28.012,7.279,41.39,10.299c13.379,3.022,22.02,4.945,25.922,5.769c3.902,0.824,16.306,3.158,37.209,7.005
		c20.905,3.845,34.005,6.179,39.301,7.003c5.295,0.824,18.258,2.884,38.883,6.18c20.626,3.296,31.078,4.944,31.358,4.944
		c0.276,0,10.312,1.922,30.102,5.768c19.79,3.845,29.753,5.836,29.893,5.973l0.209,0.207l-1.254,61.388
		c-0.836,40.926-2.927,93.799-6.271,158.621c-3.345,64.821-5.993,110.142-7.944,135.959c-1.951,25.82-4.181,47.931-6.688,66.333
		c-2.509,18.403-5.437,35.844-8.78,52.323c-3.346,16.481-6.968,33.097-10.869,49.853c-3.902,16.755-7.387,31.449-10.453,44.083
		c-3.066,12.635-6.689,26.23-10.87,40.789c-4.182,14.557-6.69,23.346-7.526,26.367s-2.091,6.865-3.763,11.535
		c-1.673,4.67-3.624,10.438-5.854,17.305c-2.229,6.865-5.713,16.754-10.452,29.664c-4.738,12.91-8.641,23.209-11.706,30.9
		c-3.066,7.689-6.828,16.893-11.288,27.604c-4.46,10.713-10.173,23.621-17.143,38.727c-6.967,15.109-11.149,23.898-12.542,26.369
		c-1.395,2.473-6.481,11.467-15.26,26.986c-8.78,15.518-14.076,24.721-15.889,27.604c-1.812,2.885-6.131,10.162-12.961,21.838
		c-6.828,11.672-11.288,19.088-13.378,22.246s-5.296,8.104-9.616,14.834c-4.32,6.729-7.805,11.947-10.453,15.656
		c-2.646,3.707-5.713,8.102-9.196,13.182c-3.485,5.082-6.83,9.752-10.034,14.008c-3.206,4.258-5.716,7.828-7.527,10.713
		c-1.811,2.885-4.459,6.592-7.941,11.125c-3.486,4.531-6.83,9.062-10.035,13.596c-3.205,4.531-6.689,9.201-10.452,14.008
		c-3.764,4.807-6.969,8.926-9.617,12.359c-2.647,3.434-8.291,9.957-16.934,19.57c-8.64,9.613-18.813,20.6-30.521,32.961
		c-11.706,12.359-22.019,22.934-30.939,31.723c-8.918,8.789-14.842,14.352-17.768,16.686c-2.927,2.336-9.756,8.24-20.487,17.717
		c-10.73,9.477-17.28,15.244-19.648,17.305c-2.371,2.059-8.224,7.141-17.561,15.244c-9.338,8.104-15.47,13.32-18.396,15.656
		c-2.928,2.334-6.271,5.08-10.035,8.24c-3.763,3.158-8.988,7.484-15.678,12.977c-6.69,5.494-11.777,9.545-15.261,12.154
		s-6.829,4.945-10.033,7.004c-3.207,2.061-9.06,5.631-17.561,10.711c-8.501,5.082-14.075,8.516-16.724,10.303
		c-2.648,1.783-5.645,3.639-8.989,5.561s-6.829,4.121-10.452,6.594c-3.623,2.471-6.271,4.256-7.943,5.354
		c-1.673,1.1-5.297,3.021-10.871,5.77c-5.574,2.746-12.264,5.904-20.067,9.475c-7.805,3.57-13.24,5.906-16.307,7.004l-4.597,1.648
		l-5.018-1.236c-3.345-0.822-6.968-2.197-10.87-4.121c-3.901-1.92-10.453-5.217-19.651-9.887c-9.197-4.67-14.493-7.553-15.887-8.652
		c-1.393-1.098-4.947-3.502-10.662-7.209c-5.713-3.709-10.034-6.455-12.96-8.24c-2.926-1.785-8.64-5.219-17.142-10.299
		c-8.5-5.082-14.354-8.654-17.56-10.713c-3.204-2.061-6.549-4.395-10.034-7.004c-3.484-2.609-7.457-5.701-11.916-9.27
		c-4.459-3.572-10.383-8.447-17.77-14.627c-7.385-6.18-13.796-11.535-19.231-16.068c-5.436-4.531-13.379-11.398-23.831-20.602
		c-10.452-9.199-17.143-14.967-20.069-17.301c-2.925-2.338-9.336-7.83-19.231-16.482c-9.895-8.65-15.4-13.525-16.515-14.625
		c-1.113-1.1-6.062-5.973-14.842-14.625c-8.78-8.652-14.911-14.832-18.396-18.541c-3.484-3.707-11.148-11.947-22.995-24.721
		c-11.846-12.771-18.954-20.6-21.323-23.484c-2.37-2.883-5.853-7.141-10.452-12.77c-4.6-5.633-8.223-10.164-10.871-13.598
		c-2.647-3.432-5.296-7.004-7.944-10.711c-2.648-3.709-5.435-7.555-8.361-11.537s-5.575-7.553-7.944-10.711
		c-2.369-3.158-4.39-5.977-6.062-8.445c-1.672-2.473-3.972-5.701-6.898-9.684s-5.436-7.553-7.526-10.713
		c-2.09-3.158-4.878-7.277-8.362-12.361c-3.483-5.078-6.132-9.061-7.943-11.945c-1.811-2.885-4.738-7.416-8.78-13.596
		c-4.041-6.182-6.688-10.438-7.944-12.773c-1.253-2.334-4.738-8.24-10.451-17.715c-5.715-9.477-9.478-15.656-11.29-18.539
		c-1.812-2.887-6.341-10.781-13.588-23.691c-7.247-12.91-12.682-22.66-16.304-29.25c-3.624-6.594-6.829-12.773-9.616-18.541
		c-2.788-5.77-6.691-14.422-11.707-25.957c-5.017-11.537-7.526-17.441-7.526-17.717c0-0.273-2.508-6.592-7.525-18.951
		s-8.919-22.111-11.707-29.252c-2.787-7.143-6.689-17.99-11.707-32.549c-5.018-14.557-10.034-30.076-15.051-46.557
		c-5.017-16.479-10.592-36.529-16.724-60.15c-6.132-23.622-10.452-41.2-12.961-52.736c-2.508-11.535-5.992-28.291-10.452-50.264
		c-4.458-21.973-7.107-36.392-7.943-43.26c-0.836-6.866-2.648-27.878-5.436-63.036c-2.787-35.157-4.599-61.663-5.435-79.515
		c-0.836-17.854-1.812-36.806-2.927-56.857c-1.115-20.05-2.648-52.873-4.599-98.468c-1.952-45.594-2.927-77.868-2.927-96.82v-28.428
		l2.718-1.442c1.811-0.962,6.758-2.129,14.842-3.502c8.083-1.374,19.232-3.158,33.447-5.356
		c14.214-2.198,35.816-5.769,64.803-10.712c28.989-4.944,49.754-8.515,62.296-10.712c12.543-2.197,29.127-5.63,49.752-10.3
		c20.626-4.668,38.464-9.063,53.516-13.184c15.052-4.12,28.012-7.965,38.882-11.536c10.871-3.57,19.372-6.316,25.504-8.24
		c6.132-1.922,11.985-3.846,17.56-5.768c5.575-1.922,16.725-6.042,33.447-12.36c16.724-6.318,32.401-12.703,47.034-19.158
		c14.633-6.455,22.438-9.751,23.413-9.888c0.976-0.138,8.013-3.228,21.113-9.271c13.101-6.042,24.947-11.536,35.539-16.479
		c10.591-4.945,21.044-9.889,31.356-14.833c10.313-4.944,23.136-11.399,38.465-19.363l22.995-11.948H769.667z"/>
</g>
<g id="Foreground_Banner">
	
		<rect x="151.626" y="1016.349" fill="#EEEEEE" stroke="#000000" stroke-width="1.3873" stroke-linecap="round" stroke-linejoin="round" width="1243.173" height="282.694"/>
</g>
</svg>
